<?xml version="1.0" encoding="UTF-8" standalone="no"?>
<svg
   xmlns:dc="http://purl.org/dc/elements/1.1/"
   xmlns:cc="http://creativecommons.org/ns#"
   xmlns:rdf="http://www.w3.org/1999/02/22-rdf-syntax-ns#"
   xmlns:svg="http://www.w3.org/2000/svg"
   xmlns="http://www.w3.org/2000/svg"
   viewBox="0 0 503.06598 128.45866"
   height="128.45866"
   width="503.06598"
   xml:space="preserve"
   id="svg2"
   version="1.1"><metadata
     id="metadata8"><rdf:RDF><cc:Work
         rdf:about=""><dc:format>image/svg+xml</dc:format><dc:type
           rdf:resource="http://purl.org/dc/dcmitype/StillImage" /><dc:title></dc:title></cc:Work></rdf:RDF></metadata><defs
     id="defs6"><clipPath
       id="clipPath18"
       clipPathUnits="userSpaceOnUse"><path
         id="path16"
         d="M 0,351.539 H 624.959 V 0 H 0 Z" /></clipPath><clipPath
       id="clipPath28"
       clipPathUnits="userSpaceOnUse"><path
         id="path26"
         d="m -188.65,48.172 h 377.3 v -96.344 h -377.3 z" /></clipPath></defs><g
     transform="matrix(1.3333333,0,0,-1.3333333,-165.10629,297.22729)"
     id="g10"><g
       id="g12"><g
         clip-path="url(#clipPath18)"
         id="g14"><g
           transform="matrix(1,0,0,-1,312.47952,174.74847)"
           id="g20"><g
             id="g22"><g
               clip-path="url(#clipPath28)"
               id="g24"><g
                 transform="translate(185.3147,-2.4105)"
                 id="g30"><path
                   id="path32"
                   style="fill:#ca005d;fill-opacity:1;fill-rule:nonzero;stroke:none"
                   d="m 0,0 h -156.535 c -1.842,0 -3.335,-1.493 -3.335,-3.335 v -39.091 c 0,-1.842 1.493,-3.336 3.335,-3.336 H 0 c 1.842,0 3.335,1.494 3.335,3.336 V -3.335 C 3.335,-1.493 1.842,0 0,0" /></g><g
                 transform="translate(17.2811,-48.172)"
                 id="g34"><path
                   id="path36"
                   style="fill:#ca005d;fill-opacity:1;fill-rule:nonzero;stroke:none"
                   d="m 0,0 h -107.506 c 1.842,0 3.335,1.493 3.335,3.335 v 39.091 c 0,1.842 -1.493,3.335 -3.335,3.335 H 0 c 1.842,0 3.335,-1.493 3.335,-3.335 V 3.335 C 3.335,1.493 1.842,0 0,0" /></g><g
                 transform="translate(-86.8898,-5.7457)"
                 id="g38"><path
                   id="path40"
                   style="fill:#ffffff;fill-opacity:1;fill-rule:nonzero;stroke:none"
                   d="m 0,0 v -39.091 c 0,-1.842 -1.493,-3.335 -3.335,-3.335 h -49.029 -46.061 c -1.842,0 -3.335,1.493 -3.335,3.335 V 0 c 0,1.842 1.493,3.335 3.335,3.335 h 46.061 49.029 C -1.493,3.335 0,1.842 0,0" /></g><g
                 transform="translate(167.7395,48.172)"
                 id="g42"><path
                   id="path44"
                   style="fill:#ca005d;fill-opacity:1;fill-rule:nonzero;stroke:none"
                   d="m 0,0 h -334.293 c -1.842,0 -3.335,-1.493 -3.335,-3.335 v -39.091 c 0,-1.842 1.493,-3.336 3.335,-3.336 H 0 c 1.842,0 3.335,1.494 3.335,3.336 V -3.335 C 3.335,-1.493 1.842,0 0,0" /></g><g
                 transform="translate(-174.5826,-17.2394)"
                 id="g46"><path
                   id="path48"
                   style="fill:#ca005d;fill-opacity:1;fill-rule:nonzero;stroke:none"
                   d="m 0,0 c 1.404,0 2.484,-0.288 3.708,-0.937 v -3.346 c -0.685,-0.036 -1.62,-0.072 -2.34,-0.072 -2.916,0 -4.032,0.935 -4.032,2.303 C -2.664,-0.792 -1.692,0 0,0 M 7.667,3.023 H 3.852 V 1.871 c -1.477,0.937 -2.916,1.368 -5.04,1.368 -3.635,0 -5.651,-1.979 -5.651,-4.967 0,-3.276 2.52,-5.58 8.099,-5.58 0.9,0 1.692,0.037 2.448,0.037 v -1.008 c 0,-1.944 -1.152,-3.024 -3.96,-3.024 -1.728,0 -3.167,0.288 -5.075,1.08 l -0.576,-3.42 c 2.195,-0.935 4.103,-1.368 6.407,-1.368 4.788,0 7.163,2.269 7.163,6.264 z" /></g><g
                 transform="translate(-158.5269,-14.216)"
                 id="g50"><path
                   id="path52"
                   style="fill:#ca005d;fill-opacity:1;fill-rule:nonzero;stroke:none"
                   d="M 0,0 H -4.067 V -24.945 L 0,-25.161 Z" /></g><g
                 transform="translate(-149.8511,-14.216)"
                 id="g54"><path
                   id="path56"
                   style="fill:#ca005d;fill-opacity:1;fill-rule:nonzero;stroke:none"
                   d="M 0,0 H -4.067 V -24.945 L 0,-25.161 Z" /></g><g
                 transform="translate(-135.1636,-25.0509)"
                 id="g58"><path
                   id="path60"
                   style="fill:#ca005d;fill-opacity:1;fill-rule:nonzero;stroke:none"
                   d="m 0,0 c 0,-2.447 -1.296,-4.031 -3.383,-4.031 -1.908,0 -3.348,1.404 -3.708,4.031 z m -3.096,-7.307 c 4.356,0 7.055,2.628 7.055,7.271 0,1.08 -0.035,2.232 -0.107,3.024 H -7.163 c 0.432,3.167 2.267,4.608 5.471,4.608 2.016,0 3.42,-0.288 5.184,-0.865 v 3.384 c -1.872,0.612 -3.312,0.936 -5.688,0.936 -5.435,0 -8.927,-2.88 -8.927,-9.071 0,-6.084 3.6,-9.287 8.027,-9.287" /></g><g
                 transform="translate(-117.6314,-25.0509)"
                 id="g62"><path
                   id="path64"
                   style="fill:#ca005d;fill-opacity:1;fill-rule:nonzero;stroke:none"
                   d="m 0,0 c 0,-2.447 -1.296,-4.031 -3.384,-4.031 -1.908,0 -3.347,1.404 -3.707,4.031 z m -3.096,-7.307 c 4.356,0 7.055,2.628 7.055,7.271 0,1.08 -0.036,2.232 -0.107,3.024 H -7.164 c 0.433,3.167 2.268,4.608 5.472,4.608 2.015,0 3.42,-0.288 5.183,-0.865 v 3.384 c -1.872,0.612 -3.311,0.936 -5.687,0.936 -5.435,0 -8.927,-2.88 -8.927,-9.071 0,-6.084 3.6,-9.287 8.027,-9.287" /></g><g
                 transform="translate(-99.3795,-25.1222)"
                 id="g66"><path
                   id="path68"
                   style="fill:#ca005d;fill-opacity:1;fill-rule:nonzero;stroke:none"
                   d="m 0,0 c 0,-2.34 -1.152,-3.348 -3.275,-3.348 -1.296,0 -2.233,0.18 -3.456,0.684 v 13.57 h -4.068 v -17.71 l 3.96,-0.179 v 1.296 c 1.547,-0.972 2.915,-1.441 4.715,-1.441 3.888,0 6.191,2.232 6.191,6.3 V 10.906 H 0 Z" /></g><g
                 transform="translate(-80.6068,-18.0314)"
                 id="g70"><path
                   id="path72"
                   style="fill:#ffffff;fill-opacity:1;fill-rule:nonzero;stroke:none"
                   d="m 0,0 c 1.692,0.432 3.42,0.612 5.075,0.612 2.521,0 3.384,-0.757 3.384,-1.836 0,-0.936 -0.504,-1.476 -2.411,-2.015 L 3.815,-3.888 C 1.368,-4.607 0,-6.119 0,-8.639 c 0,-3.204 2.736,-5.58 7.415,-5.58 1.656,0 3.132,0.145 4.356,0.397 l -0.252,3.42 c -1.548,-0.252 -2.808,-0.361 -4.32,-0.361 -2.195,0 -3.168,0.756 -3.168,1.692 0,0.864 0.361,1.368 2.088,1.836 l 2.124,0.576 c 3.06,0.828 4.283,2.412 4.283,4.787 0,3.672 -2.843,5.903 -7.415,5.903 C 3.132,4.031 1.368,3.888 0,3.527 Z" /></g><g
                 transform="translate(-59.1889,-17.2394)"
                 id="g74"><path
                   id="path76"
                   style="fill:#ffffff;fill-opacity:1;fill-rule:nonzero;stroke:none"
                   d="m 0,0 c 1.404,0 2.484,-0.288 3.708,-0.937 v -3.346 c -0.684,-0.036 -1.62,-0.072 -2.34,-0.072 -2.915,0 -4.031,0.935 -4.031,2.303 C -2.663,-0.792 -1.691,0 0,0 M 7.668,3.023 H 3.852 V 1.871 c -1.476,0.937 -2.915,1.368 -5.039,1.368 -3.636,0 -5.652,-1.979 -5.652,-4.967 0,-3.276 2.52,-5.58 8.1,-5.58 0.899,0 1.691,0.037 2.447,0.037 v -1.008 c 0,-1.944 -1.151,-3.024 -3.96,-3.024 -1.727,0 -3.167,0.288 -5.075,1.08 l -0.575,-3.42 c 2.195,-0.935 4.103,-1.368 6.407,-1.368 4.787,0 7.163,2.269 7.163,6.264 z" /></g><g
                 transform="translate(-25.9623,-25.0871)"
                 id="g78"><path
                   id="path80"
                   style="fill:#ffffff;fill-opacity:1;fill-rule:nonzero;stroke:none"
                   d="m 0,0 c 0,-2.339 -1.151,-3.383 -3.239,-3.383 -1.296,0 -2.052,0.18 -3.312,0.684 v 13.57 h -4.067 V 0 c 0,-2.411 -1.116,-3.383 -3.24,-3.383 -1.332,0 -2.052,0.18 -3.312,0.684 v 13.57 h -4.067 v -17.71 l 3.96,-0.18 v 1.296 c 1.619,-0.971 2.915,-1.44 4.678,-1.44 2.304,0 3.78,0.684 4.86,1.944 1.763,-1.26 3.492,-1.944 5.651,-1.944 3.924,0 6.155,2.268 6.155,6.336 V 10.871 H 0 Z" /></g><g
                 transform="translate(-7.4926,-25.0509)"
                 id="g82"><path
                   id="path84"
                   style="fill:#ffffff;fill-opacity:1;fill-rule:nonzero;stroke:none"
                   d="m 0,0 c 0,-2.447 -1.296,-4.031 -3.384,-4.031 -1.908,0 -3.347,1.404 -3.708,4.031 z m -3.096,-7.307 c 4.356,0 7.055,2.628 7.055,7.271 0,1.08 -0.036,2.232 -0.107,3.024 H -7.163 c 0.432,3.167 2.267,4.608 5.471,4.608 2.015,0 3.42,-0.288 5.183,-0.865 v 3.384 c -1.872,0.612 -3.311,0.936 -5.687,0.936 -5.436,0 -8.927,-2.88 -8.927,-9.071 0,-6.084 3.6,-9.287 8.027,-9.287" /></g><g
                 transform="translate(10.7589,-25.1222)"
                 id="g86"><path
                   id="path88"
                   style="fill:#ffffff;fill-opacity:1;fill-rule:nonzero;stroke:none"
                   d="m 0,0 c 0,-2.34 -1.152,-3.348 -3.275,-3.348 -1.296,0 -2.233,0.18 -3.456,0.684 v 13.57 h -4.067 v -17.71 l 3.959,-0.179 v 1.296 c 1.547,-0.972 2.915,-1.441 4.715,-1.441 3.888,0 6.191,2.232 6.191,6.3 V 10.906 H 0 Z" /></g><g
                 transform="translate(36.8408,-14.216)"
                 id="g90"><path
                   id="path92"
                   style="fill:#ffffff;fill-opacity:1;fill-rule:nonzero;stroke:none"
                   d="M 0,0 H -4.067 V -24.945 L 0,-25.161 v 13.786 h 1.512 l 5.111,-6.442 h 4.644 L 5.111,-10.295 11.734,0 H 6.804 L 1.764,-8.207 H 0 Z" /></g><g
                 transform="translate(60.2402,-28.0744)"
                 id="g94"><path
                   id="path96"
                   style="fill:#ffffff;fill-opacity:1;fill-rule:nonzero;stroke:none"
                   d="m 0,0 c -0.756,-0.18 -1.26,-0.252 -2.016,-0.252 -1.116,0 -2.232,0.36 -3.456,1.296 v 12.814 h -4.067 v -17.71 l 4.031,-0.179 v 2.052 c 1.224,-1.584 2.34,-2.197 3.744,-2.197 0.792,0 1.404,0.072 2.052,0.252 z" /></g><g
                 transform="translate(66.6845,-14.216)"
                 id="g98"><path
                   id="path100"
                   style="fill:#ffffff;fill-opacity:1;fill-rule:nonzero;stroke:none"
                   d="M 0,0 H -4.067 V -17.71 L 0,-17.89 Z m -2.052,-25.197 c 1.548,0 2.412,0.972 2.412,2.34 0,1.259 -0.864,2.303 -2.412,2.303 -1.548,0 -2.376,-0.935 -2.376,-2.303 0,-1.26 0.828,-2.34 2.376,-2.34" /></g><g
                 transform="translate(73.3085,-39.4132)"
                 id="g102"><path
                   id="path104"
                   style="fill:#ffffff;fill-opacity:1;fill-rule:nonzero;stroke:none"
                   d="M 0,0 C 1.548,0 2.412,0.973 2.412,2.34 2.412,3.6 1.548,4.644 0,4.644 -1.548,4.644 -2.376,3.708 -2.376,2.34 -2.376,1.08 -1.548,0 0,0 m 2.052,25.197 c 0,4.499 -2.844,6.516 -6.444,7.02 l -0.359,-3.24 c 1.871,-0.468 2.735,-1.62 2.735,-3.707 V 7.487 L 2.052,7.308 Z" /></g><g
                 transform="translate(89.7236,-26.0226)"
                 id="g106"><path
                   id="path108"
                   style="fill:#ffffff;fill-opacity:1;fill-rule:nonzero;stroke:none"
                   d="m 0,0 c 0,-2.159 -1.187,-3.312 -3.456,-3.312 -2.016,0 -3.455,1.153 -3.455,3.564 0,2.304 1.296,3.275 3.384,3.275 C -1.296,3.527 0,2.483 0,0 m -3.743,15.838 c 3.887,0 5.291,-0.972 5.291,-2.375 0,-1.044 -0.649,-1.62 -2.412,-1.656 l -5.904,-0.18 c -0.683,0.468 -0.971,1.044 -0.971,1.871 0,1.404 1.223,2.34 3.996,2.34 M -4.5,8.352 h 4.248 c 3.815,0 5.436,1.511 5.436,4.39 0,3.384 -2.808,6.119 -9.288,6.119 -5.075,0 -7.415,-1.799 -7.415,-4.571 0,-1.691 0.936,-3.096 2.7,-3.852 v -0.107 c -0.827,-0.433 -1.404,-1.332 -1.404,-2.376 0,-1.116 0.684,-2.16 1.98,-2.664 V 5.184 c -1.62,-0.901 -2.556,-2.413 -2.556,-4.716 0,-4.32 2.916,-6.659 7.415,-6.659 0.972,0 1.836,0.108 2.736,0.36 h 5.759 v 2.699 H 2.376 v 0.109 c 0.756,0.576 1.403,1.799 1.403,3.347 0,3.924 -2.663,5.976 -7.558,5.976 -0.792,0 -1.548,-0.109 -2.233,-0.288 -0.467,0.252 -0.756,0.683 -0.756,1.115 0,0.792 0.613,1.225 2.268,1.225" /></g><g
                 transform="translate(107.6874,-25.0509)"
                 id="g110"><path
                   id="path112"
                   style="fill:#ffffff;fill-opacity:1;fill-rule:nonzero;stroke:none"
                   d="m 0,0 c 0,-2.447 -1.296,-4.031 -3.384,-4.031 -1.908,0 -3.347,1.404 -3.708,4.031 z m -3.096,-7.307 c 4.356,0 7.055,2.628 7.055,7.271 0,1.08 -0.036,2.232 -0.107,3.024 H -7.163 c 0.432,3.167 2.267,4.608 5.471,4.608 2.015,0 3.42,-0.288 5.183,-0.865 v 3.384 c -1.872,0.612 -3.311,0.936 -5.687,0.936 -5.436,0 -8.927,-2.88 -8.927,-9.071 0,-6.084 3.6,-9.287 8.027,-9.287" /></g><g
                 transform="translate(125.9394,-25.1222)"
                 id="g114"><path
                   id="path116"
                   style="fill:#ffffff;fill-opacity:1;fill-rule:nonzero;stroke:none"
                   d="m 0,0 c 0,-2.34 -1.152,-3.348 -3.275,-3.348 -1.296,0 -2.233,0.18 -3.456,0.684 v 13.57 h -4.068 v -17.71 l 3.96,-0.179 v 1.296 c 1.547,-0.972 2.915,-1.441 4.715,-1.441 3.888,0 6.191,2.232 6.191,6.3 V 10.906 H 0 Z" /></g><g
                 transform="translate(159.2734,-14.216)"
                 id="g118"><path
                   id="path120"
                   style="fill:#ffffff;fill-opacity:1;fill-rule:nonzero;stroke:none"
                   d="M 0,0 H -5.615 L -8.207,-9.575 H -8.315 L -11.195,0 h -5.435 l -4.752,-17.817 h 4.68 l 3.023,14.362 h 0.18 l 3.528,-11.051 -0.9,-3.311 h 4.103 l 4.032,14.362 h 0.18 l 3.095,-14.362 h 4.248 z" /></g><g
                 transform="translate(176.4462,-25.0509)"
                 id="g122"><path
                   id="path124"
                   style="fill:#ffffff;fill-opacity:1;fill-rule:nonzero;stroke:none"
                   d="m 0,0 c 0,-2.447 -1.296,-4.031 -3.384,-4.031 -1.908,0 -3.347,1.404 -3.708,4.031 z m -3.096,-7.307 c 4.356,0 7.055,2.628 7.055,7.271 0,1.08 -0.036,2.232 -0.107,3.024 H -7.163 c 0.432,3.167 2.267,4.608 5.471,4.608 2.015,0 3.42,-0.288 5.183,-0.865 v 3.384 c -1.872,0.612 -3.311,0.936 -5.687,0.936 -5.436,0 -8.927,-2.88 -8.927,-9.071 0,-6.084 3.6,-9.287 8.027,-9.287" /></g><g
                 transform="translate(-149.816,21.9266)"
                 id="g126"><path
                   id="path128"
                   style="fill:#ffffff;fill-opacity:1;fill-rule:nonzero;stroke:none"
                   d="m 0,0 c -1.116,-0.217 -2.016,-0.324 -3.167,-0.324 -2.808,0 -4.788,1.979 -4.788,5.47 0,3.852 2.088,5.472 4.86,5.472 1.152,0 2.195,-0.143 3.419,-0.468 v 3.528 c -1.188,0.36 -2.376,0.504 -3.815,0.504 -5.184,0 -8.639,-2.772 -8.639,-8.855 0,-5.939 4.031,-9.431 8.747,-9.431 1.511,0 2.483,0.108 3.743,0.432 z" /></g><g
                 transform="translate(-138.9434,21.3504)"
                 id="g130"><path
                   id="path132"
                   style="fill:#ffffff;fill-opacity:1;fill-rule:nonzero;stroke:none"
                   d="m 0,0 c -2.484,0 -4.427,2.052 -4.427,5.831 0,3.672 1.727,5.436 4.427,5.436 2.484,0 4.427,-2.052 4.427,-5.831 C 4.427,1.8 2.664,0 0,0 m -0.252,14.866 c -4.895,0 -8.351,-3.023 -8.351,-8.891 0,-5.868 4.103,-9.575 8.855,-9.575 4.895,0 8.351,3.024 8.351,8.927 0,5.867 -4.103,9.539 -8.855,9.539" /></g><g
                 transform="translate(-117.2359,22.034)"
                 id="g134"><path
                   id="path136"
                   style="fill:#ffffff;fill-opacity:1;fill-rule:nonzero;stroke:none"
                   d="m 0,0 c -0.756,-0.18 -1.26,-0.252 -2.016,-0.252 -1.116,0 -2.232,0.36 -3.456,1.296 v 12.814 h -4.067 v -17.71 l 4.031,-0.179 v 2.052 c 1.224,-1.584 2.34,-2.197 3.744,-2.197 0.792,0 1.404,0.072 2.052,0.252 z" /></g><g
                 transform="translate(-107.3004,21.3504)"
                 id="g138"><path
                   id="path140"
                   style="fill:#ffffff;fill-opacity:1;fill-rule:nonzero;stroke:none"
                   d="m 0,0 c -2.483,0 -4.427,2.052 -4.427,5.831 0,3.672 1.728,5.436 4.427,5.436 2.484,0 4.428,-2.052 4.428,-5.831 C 4.428,1.8 2.664,0 0,0 m -0.252,14.866 c -4.894,0 -8.351,-3.023 -8.351,-8.891 0,-5.868 4.104,-9.575 8.855,-9.575 4.895,0 8.352,3.024 8.352,8.927 0,5.867 -4.104,9.539 -8.856,9.539" /></g><g
                 transform="translate(-84.3326,24.9862)"
                 id="g142"><path
                   id="path144"
                   style="fill:#ffffff;fill-opacity:1;fill-rule:nonzero;stroke:none"
                   d="m 0,0 c 0,-2.34 -1.152,-3.348 -3.275,-3.348 -1.296,0 -2.233,0.18 -3.456,0.684 v 13.57 h -4.068 v -17.71 l 3.96,-0.179 v 1.296 c 1.547,-0.972 2.915,-1.441 4.715,-1.441 3.888,0 6.191,2.232 6.191,6.3 V 10.906 H 0 Z" /></g><g
                 transform="translate(-70.4371,32.869)"
                 id="g146"><path
                   id="path148"
                   style="fill:#ffffff;fill-opacity:1;fill-rule:nonzero;stroke:none"
                   d="m 0,0 c 1.404,0 2.484,-0.288 3.708,-0.937 v -3.346 c -0.684,-0.036 -1.62,-0.072 -2.34,-0.072 -2.915,0 -4.031,0.935 -4.031,2.303 C -2.663,-0.792 -1.691,0 0,0 M 7.668,3.023 H 3.852 V 1.872 c -1.476,0.936 -2.915,1.367 -5.039,1.367 -3.636,0 -5.652,-1.979 -5.652,-4.967 0,-3.276 2.52,-5.58 8.1,-5.58 0.899,0 1.691,0.037 2.447,0.037 v -1.008 c 0,-1.944 -1.151,-3.024 -3.96,-3.024 -1.727,0 -3.167,0.288 -5.075,1.08 l -0.575,-3.42 c 2.195,-0.935 4.103,-1.368 6.407,-1.368 4.787,0 7.163,2.269 7.163,6.264 z" /></g><g
                 transform="translate(-44.9859,21.3504)"
                 id="g150"><path
                   id="path152"
                   style="fill:#ffffff;fill-opacity:1;fill-rule:nonzero;stroke:none"
                   d="m 0,0 c -2.483,0 -4.427,2.052 -4.427,5.831 0,3.672 1.728,5.436 4.427,5.436 2.484,0 4.428,-2.052 4.428,-5.831 C 4.428,1.8 2.664,0 0,0 m -0.252,14.866 c -4.894,0 -8.351,-3.023 -8.351,-8.891 0,-5.868 4.104,-9.575 8.855,-9.575 4.895,0 8.352,3.024 8.352,8.927 0,5.867 -4.104,9.539 -8.856,9.539" /></g><g
                 transform="translate(-22.0181,24.9862)"
                 id="g154"><path
                   id="path156"
                   style="fill:#ffffff;fill-opacity:1;fill-rule:nonzero;stroke:none"
                   d="m 0,0 c 0,-2.34 -1.152,-3.348 -3.275,-3.348 -1.296,0 -2.233,0.18 -3.456,0.684 v 13.57 h -4.068 v -17.71 l 3.96,-0.179 v 1.296 c 1.547,-0.972 2.915,-1.441 4.715,-1.441 3.888,0 6.191,2.232 6.191,6.3 V 10.906 H 0 Z" /></g><g
                 transform="translate(-10.4976,27.1815)"
                 id="g158"><path
                   id="path160"
                   style="fill:#ffffff;fill-opacity:1;fill-rule:nonzero;stroke:none"
                   d="m 0,0 c 0,3.779 1.836,5.363 4.463,5.363 1.296,0 2.088,-0.216 3.276,-0.828 V -5.615 C 6.875,-5.759 6.119,-5.831 5.184,-5.831 2.052,-5.831 0,-3.672 0,0 M 11.807,8.711 H 7.847 V 7.487 c -1.26,0.9 -2.844,1.44 -4.608,1.44 -4.427,0 -7.415,-2.951 -7.415,-8.711 0,-6.011 3.888,-9.539 9.323,-9.539 0.936,0 1.8,0.072 2.592,0.288 v -7.199 l 4.068,-0.216 z" /></g><g
                 transform="translate(15.997,25.0575)"
                 id="g162"><path
                   id="path164"
                   style="fill:#ffffff;fill-opacity:1;fill-rule:nonzero;stroke:none"
                   d="m 0,0 c 0,-2.447 -1.296,-4.031 -3.384,-4.031 -1.908,0 -3.347,1.404 -3.707,4.031 z m -3.096,-7.307 c 4.356,0 7.055,2.628 7.055,7.271 0,1.08 -0.036,2.232 -0.107,3.024 H -7.163 c 0.432,3.167 2.267,4.608 5.471,4.608 2.015,0 3.42,-0.288 5.183,-0.865 v 3.384 c -1.872,0.612 -3.311,0.936 -5.687,0.936 -5.435,0 -8.927,-2.88 -8.927,-9.071 0,-6.084 3.6,-9.287 8.027,-9.287" /></g><g
                 transform="translate(32.9892,22.034)"
                 id="g166"><path
                   id="path168"
                   style="fill:#ffffff;fill-opacity:1;fill-rule:nonzero;stroke:none"
                   d="m 0,0 c -0.756,-0.18 -1.26,-0.252 -2.016,-0.252 -1.116,0 -2.232,0.36 -3.456,1.296 v 12.814 h -4.067 v -17.71 l 4.031,-0.179 v 2.052 c 1.224,-1.584 2.34,-2.197 3.744,-2.197 0.792,0 1.404,0.072 2.052,0.252 z" /></g><g
                 transform="translate(52.3564,21.9266)"
                 id="g170"><path
                   id="path172"
                   style="fill:#ffffff;fill-opacity:1;fill-rule:nonzero;stroke:none"
                   d="m 0,0 c -1.116,-0.217 -2.016,-0.324 -3.168,-0.324 -2.808,0 -4.787,1.979 -4.787,5.47 0,3.852 2.088,5.472 4.859,5.472 1.152,0 2.196,-0.143 3.419,-0.468 v 3.528 c -1.187,0.36 -2.375,0.504 -3.815,0.504 -5.183,0 -8.639,-2.772 -8.639,-8.855 0,-5.939 4.031,-9.431 8.747,-9.431 1.512,0 2.484,0.108 3.743,0.432 z" /></g><g
                 transform="translate(63.2275,21.3504)"
                 id="g174"><path
                   id="path176"
                   style="fill:#ffffff;fill-opacity:1;fill-rule:nonzero;stroke:none"
                   d="m 0,0 c -2.483,0 -4.427,2.052 -4.427,5.831 0,3.672 1.728,5.436 4.427,5.436 2.484,0 4.428,-2.052 4.428,-5.831 C 4.428,1.8 2.664,0 0,0 m -0.252,14.866 c -4.894,0 -8.351,-3.023 -8.351,-8.891 0,-5.868 4.104,-9.575 8.855,-9.575 4.895,0 8.352,3.024 8.352,8.927 0,5.867 -4.104,9.539 -8.856,9.539" /></g><g
                 transform="translate(86.1953,24.9862)"
                 id="g178"><path
                   id="path180"
                   style="fill:#ffffff;fill-opacity:1;fill-rule:nonzero;stroke:none"
                   d="m 0,0 c 0,-2.34 -1.152,-3.348 -3.275,-3.348 -1.296,0 -2.233,0.18 -3.456,0.684 v 13.57 h -4.068 v -17.71 l 3.96,-0.179 v 1.296 c 1.547,-0.972 2.915,-1.441 4.715,-1.441 3.888,0 6.191,2.232 6.191,6.3 V 10.906 H 0 Z" /></g><g
                 transform="translate(93.0361,18.0751)"
                 id="g182"><path
                   id="path184"
                   style="fill:#ffffff;fill-opacity:1;fill-rule:nonzero;stroke:none"
                   d="M 0,0 H 2.16 V -3.24 L 6.228,-3.6 V 0 h 4.499 V 3.131 H 6.228 v 8.423 c 0,2.051 1.08,2.952 2.663,2.952 0.864,0 1.368,-0.072 2.303,-0.288 v 3.384 C 9.971,17.926 9.071,18.033 7.703,18.033 4.392,18.033 2.16,16.161 2.16,12.094 V 3.131 H 0 Z" /></g><g
                 transform="translate(116.3984,22.034)"
                 id="g186"><path
                   id="path188"
                   style="fill:#ffffff;fill-opacity:1;fill-rule:nonzero;stroke:none"
                   d="m 0,0 c -0.756,-0.18 -1.26,-0.252 -2.016,-0.252 -1.116,0 -2.232,0.36 -3.456,1.296 v 12.814 h -4.067 v -17.71 l 4.031,-0.179 v 2.052 c 1.224,-1.584 2.34,-2.197 3.744,-2.197 0.792,0 1.404,0.072 2.052,0.252 z" /></g><g
                 transform="translate(126.3339,21.3504)"
                 id="g190"><path
                   id="path192"
                   style="fill:#ffffff;fill-opacity:1;fill-rule:nonzero;stroke:none"
                   d="m 0,0 c -2.483,0 -4.427,2.052 -4.427,5.831 0,3.672 1.728,5.436 4.427,5.436 2.484,0 4.428,-2.052 4.428,-5.831 C 4.428,1.8 2.664,0 0,0 m -0.252,14.866 c -4.894,0 -8.351,-3.023 -8.351,-8.891 0,-5.868 4.104,-9.575 8.855,-9.575 4.895,0 8.352,3.024 8.352,8.927 0,5.867 -4.104,9.539 -8.856,9.539" /></g><g
                 transform="translate(142.5703,35.8925)"
                 id="g194"><path
                   id="path196"
                   style="fill:#ffffff;fill-opacity:1;fill-rule:nonzero;stroke:none"
                   d="M 0,0 H -4.067 V -24.945 L 0,-25.161 Z" /></g><g
                 transform="translate(157.2578,25.0575)"
                 id="g198"><path
                   id="path200"
                   style="fill:#ffffff;fill-opacity:1;fill-rule:nonzero;stroke:none"
                   d="m 0,0 c 0,-2.447 -1.296,-4.031 -3.384,-4.031 -1.908,0 -3.347,1.404 -3.708,4.031 z m -3.096,-7.307 c 4.356,0 7.055,2.628 7.055,7.271 0,1.08 -0.036,2.232 -0.107,3.024 H -7.163 c 0.432,3.167 2.267,4.608 5.471,4.608 2.015,0 3.42,-0.288 5.183,-0.865 v 3.384 c -1.872,0.612 -3.311,0.936 -5.687,0.936 -5.436,0 -8.927,-2.88 -8.927,-9.071 0,-6.084 3.6,-9.287 8.027,-9.287" /></g></g></g></g></g></g></g></svg>