<svg width="266" height="172" viewBox="0 0 266 172" fill="none" xmlns="http://www.w3.org/2000/svg">
<path d="M199.616 20.8311H135.307V135.593H199.616V20.8311Z" fill="#E1F6F8"/>
<path d="M149.545 18.7289V9.65111H160.82V0H172.86V9.36444H184.709V18.7289H149.545Z" fill="#E1F6F8"/>
<path d="M199.616 17.4866H135.211C134.065 17.4866 133.109 18.4421 133.109 19.5888C133.109 20.7355 134.065 21.691 135.211 21.691H199.616C200.762 21.691 201.718 20.7355 201.718 19.5888C201.622 18.4421 200.762 17.4866 199.616 17.4866Z" fill="#E1F6F8"/>
<path d="M69.6601 135.593H136.071V49.1157L103.582 12.2312L69.6601 49.1157V135.593Z" fill="#E1F6F8"/>
<path d="M199.042 135.593H265.453V49.1157L232.965 12.2312L199.042 49.1157V135.593Z" fill="#E1F6F8"/>
<path d="M62.0155 42.5223V36.2156C62.0155 34.5912 60.6778 33.2534 59.0533 33.2534H51.3133V26.7556C51.3133 25.1312 49.9756 23.7934 48.3511 23.7934H45.58C42.8089 23.7934 40.6111 21.5956 40.6111 18.8245V16.5312C40.6111 13.0912 37.84 10.3201 34.4 10.3201C30.96 10.3201 28.1889 13.0912 28.1889 16.5312V18.8245C28.1889 21.5956 25.9911 23.7934 23.22 23.7934H20.4489C18.8244 23.7934 17.4867 25.1312 17.4867 26.7556V33.2534H9.74667C8.12222 33.2534 6.78444 34.5912 6.78444 36.2156V42.5223H0V135.593H69.0867V42.5223H62.0155Z" fill="#E1F6F8"/>
<path d="M38.6046 32.1067H30.3869V45.9622H38.6046V32.1067Z" fill="white"/>
<path d="M34.9734 31.8201H34.0178V46.4401H34.9734V31.8201Z" fill="#E1F6F8"/>
<path d="M40.7067 38.6045H28.0934V39.56H40.7067V38.6045Z" fill="#E1F6F8"/>
<path d="M151.933 88.6756C153.558 86.86 154.036 84.3756 153.271 82.0822C152.889 80.9356 152.602 79.6933 152.602 78.4511C152.602 75.9667 153.462 73.6733 154.896 71.8578C156.138 70.2333 156.711 68.2267 156.233 66.22C156.042 65.36 155.947 64.3089 156.138 63.3533C156.616 60.2 159.291 57.62 162.444 57.2378C166.84 56.76 170.567 60.2 170.567 64.5C170.567 65.0733 170.471 65.7422 170.376 66.3156C169.898 68.2267 170.376 70.3289 171.618 71.8578C173.051 73.6733 173.911 75.9667 173.911 78.5467C173.911 79.7889 173.72 81.0311 173.242 82.1778C172.382 84.3755 172.86 86.86 174.484 88.6756C177.064 91.5422 178.593 95.46 178.402 99.6644C178.02 107.309 171.809 113.52 164.26 113.998C155.469 114.571 148.111 107.596 148.111 98.9C148.111 94.8867 149.544 91.3511 151.933 88.6756Z" fill="white"/>
<path d="M162.023 142.077L164.603 142.077L164.603 104.046L162.023 104.046L162.023 142.077Z" fill="white"/>
<path fill-rule="evenodd" clip-rule="evenodd" d="M205.827 50.2622C210.031 50.2622 214.713 50.8355 215.191 68.4178H200.666C200.571 68.4178 197.322 50.2622 205.827 50.2622Z" fill="black"/>
<path d="M207.451 172C226.661 172 242.233 171.529 242.233 170.949C242.233 170.368 226.661 169.898 207.451 169.898C188.241 169.898 172.669 170.368 172.669 170.949C172.669 171.529 188.241 172 207.451 172Z" fill="#E0F5F7"/>
<path fill-rule="evenodd" clip-rule="evenodd" d="M209.075 68.131L203.342 68.3222L204.489 60.5822L209.649 59.2444L209.075 68.131Z" fill="#FF7254"/>
<path d="M207.069 64.2133L203.724 65.9333L204.106 63.3533L207.069 64.2133Z" fill="#F15A37"/>
<path fill-rule="evenodd" clip-rule="evenodd" d="M184.995 159.673L183.18 165.98L180.6 166.171C179.74 166.267 178.975 166.744 178.593 167.509C178.402 167.891 178.593 168.369 178.975 168.56L186.715 171.14C187.289 171.331 187.862 171.044 188.053 170.471L191.015 161.298L184.995 159.673Z" fill="#79D3E6"/>
<path fill-rule="evenodd" clip-rule="evenodd" d="M224.173 161.202L227.422 166.936L225.702 168.942C225.129 169.611 224.938 170.567 225.224 171.427C225.416 171.809 225.893 172 226.276 171.809L232.773 168.56L233.538 168.178C234.016 167.891 234.207 167.318 234.016 166.84L229.62 158.24L224.173 161.202Z" fill="#79D3E6"/>
<path fill-rule="evenodd" clip-rule="evenodd" d="M197.991 96.2244L183.658 157.38C183.371 158.813 184.136 160.247 185.569 160.629L190.824 162.062C192.258 162.444 193.691 161.584 194.169 160.247L212.324 97.9444L197.991 96.2244Z" fill="black"/>
<path fill-rule="evenodd" clip-rule="evenodd" d="M201.049 96.8933L205.635 129.095C206.018 131.484 206.782 133.778 208.024 135.784L220.638 160.724C221.402 162.253 223.409 162.827 224.938 161.967L229.142 159.387C230.48 158.622 230.958 156.902 230.289 155.564L219.013 131.007C219.013 131.007 218.535 118.298 217.771 107.5C217.484 102.722 216.242 97.7533 214.331 96.2244C209.553 92.4977 201.049 96.8933 201.049 96.8933Z" fill="#004CBB"/>
<path fill-rule="evenodd" clip-rule="evenodd" d="M213.949 96.2244H197.991L198.278 82.9422C198.278 82.9422 196.367 81.3178 196.367 78.8333C196.367 75.4889 198.564 73.8644 200.667 71.7622C202.673 69.7556 202.769 68.1311 205.922 68.1311C210.796 68.1311 215.287 72.5267 216.051 81.1267C216.433 85.3311 216.147 90.7778 216.051 94.2178C215.86 95.3644 215 96.2244 213.949 96.2244Z" fill="#FFB512"/>
<path fill-rule="evenodd" clip-rule="evenodd" d="M204.775 78.1646L198.087 91.7334L197.991 96.2246H203.533L207.451 92.2112L204.775 78.1646Z" fill="#FF9D12"/>
<path fill-rule="evenodd" clip-rule="evenodd" d="M191.971 105.589L189.869 108.264C189.582 108.647 189.582 109.22 189.964 109.602L189.869 109.793C189.773 109.984 189.773 110.367 189.964 110.558C190.155 110.749 190.538 110.749 190.729 110.653H190.92L191.207 110.844C191.398 111.035 191.78 111.035 191.971 110.94L192.162 110.844L192.353 110.94C192.64 111.131 193.022 111.035 193.213 110.844L197.227 107.309L193.595 103.773L191.971 105.589Z" fill="#FF7254"/>
<path fill-rule="evenodd" clip-rule="evenodd" d="M191.78 106.831L190.442 107.118C190.06 107.213 189.678 106.927 189.678 106.544C189.678 106.353 189.773 106.162 189.964 106.067L193.022 104.442L194.073 106.067L193.022 107.213L191.78 106.831Z" fill="#FF7254"/>
<path fill-rule="evenodd" clip-rule="evenodd" d="M202.864 69.2777L203.247 66.9844H209.458V69.7555L202.864 69.2777Z" fill="#FFB512"/>
<path d="M220.255 113.042L212.611 113.52C210.795 113.615 209.171 112.278 209.075 110.367L208.693 104.729C208.598 102.913 209.935 101.289 211.847 101.193L219.491 100.716C221.307 100.62 222.931 101.958 223.027 103.869L223.409 109.507C223.504 111.322 222.071 112.947 220.255 113.042Z" fill="#008ECC"/>
<path d="M208.98 102.913L211.751 106.258C212.324 106.926 213.089 107.213 213.949 107.213L218.822 106.926C219.778 106.831 220.638 106.258 221.115 105.398L222.644 102.149" stroke="#0069D0" stroke-width="0.7975" stroke-miterlimit="10" stroke-linecap="round"/>
<path d="M210.413 102.818C210.413 102.818 204.967 85.331 204.967 74.9155L211.273 73.7688L221.211 102.053" stroke="#008ECC" stroke-width="1.5951" stroke-miterlimit="10"/>
<path fill-rule="evenodd" clip-rule="evenodd" d="M212.42 72.5266L210.413 92.6888L196.271 108.647L191.589 104.538L202.673 89.9177L204.298 72.3354L212.42 72.5266Z" fill="#FFB512"/>
<path fill-rule="evenodd" clip-rule="evenodd" d="M211.369 58.4801C210.987 61.9201 206.973 65.169 203.533 64.7868C199.52 64.4045 198.947 61.9201 199.233 58.4801C199.616 54.6579 201.813 51.1223 205.54 51.1223C210.031 51.1223 212.038 53.3201 211.369 58.4801Z" fill="#FF7254"/>
<path fill-rule="evenodd" clip-rule="evenodd" d="M205.54 51.1223C205.349 51.1223 205.158 51.1223 204.967 51.1223C204.967 51.3134 206.4 52.7468 206.782 54.1801C207.642 57.2379 205.827 67.0801 208.311 68.3223H210.509C210.509 68.3223 211.369 59.5312 211.464 58.289C212.133 53.2245 210.031 51.1223 205.54 51.1223Z" fill="black"/>
<path d="M207.642 60.1999C208.434 60.1999 209.075 59.5582 209.075 58.7666C209.075 57.975 208.434 57.3333 207.642 57.3333C206.85 57.3333 206.209 57.975 206.209 58.7666C206.209 59.5582 206.85 60.1999 207.642 60.1999Z" fill="#FF7254"/>
<path fill-rule="evenodd" clip-rule="evenodd" d="M205.922 51.1223C205.635 51.1223 205.444 51.1223 205.158 51.1223C204.967 51.1223 204.68 51.1223 204.489 51.1223C204.393 51.1223 204.393 51.1223 204.298 51.1223C204.107 51.1223 203.915 51.2179 203.82 51.2179C203.82 51.2179 203.82 51.2179 203.724 51.2179C202.673 51.5045 202.004 51.6001 200.571 53.7979L207.451 56.7601L207.833 51.409C207.451 51.3134 206.973 51.2179 206.591 51.1223H206.495C206.304 51.2179 206.113 51.1223 205.922 51.1223Z" fill="black"/>
<path d="M200.762 60.7734C200.762 60.7734 200.953 61.4423 201.909 61.4423C202.769 61.3467 203.151 60.5823 203.151 60.5823" stroke="black" stroke-width="0.4015" stroke-miterlimit="10"/>
<path d="M75.1068 59.531C75.2979 61.4421 73.769 61.9199 73.2912 62.0155C72.8134 62.111 72.4312 61.9199 72.049 61.6332C70.9023 60.9644 70.1379 57.9066 68.9912 57.2377C67.1757 56.2821 64.8823 56.1866 62.7801 56.6644C62.1112 56.7599 61.4423 56.951 60.869 56.7599C60.2001 56.5688 59.6268 55.8999 59.4357 55.231C59.2445 54.5621 59.3401 53.7977 59.5312 53.0333C59.7223 52.2688 60.9645 51.1221 61.2512 50.4533C62.2068 47.7777 61.0601 45.1977 62.4934 42.7133C63.5445 40.8977 65.4557 39.6555 67.5579 39.4644C69.6601 39.2733 71.7623 40.0377 73.2912 41.3755C74.1512 42.1399 75.2023 43.6688 75.1068 44.8155C75.0112 45.5799 74.8201 46.4399 74.4379 47.1088C73.4823 49.1155 72.8134 51.3133 72.6223 53.4155C72.5268 55.4221 74.9157 57.3333 75.1068 59.531Z" fill="#79D3E6"/>
<path d="M83.9934 158.718C114.813 158.718 139.798 158.204 139.798 157.571C139.798 156.938 114.813 156.424 83.9934 156.424C53.1734 156.424 28.1889 156.938 28.1889 157.571C28.1889 158.204 53.1734 158.718 83.9934 158.718Z" fill="#E0F5F7"/>
<path fill-rule="evenodd" clip-rule="evenodd" d="M69.5645 52.8422H68.4178C65.1689 52.8422 63.4489 50.4533 63.4489 47.7778L63.5445 44.72C63.5445 42.3311 65.6467 40.6111 68.4178 40.6111C71.6667 40.6111 74.3423 42.5222 74.4378 45.6755V48.0644C74.4378 51.1222 73.1001 52.8422 69.5645 52.8422Z" fill="#FFB512"/>
<path d="M69.3734 142.76L53.6067 86.5733L67.1756 85.0444L74.3422 141.613L73.1956 143.907L69.3734 142.76Z" fill="#008ECC"/>
<path fill-rule="evenodd" clip-rule="evenodd" d="M72.9089 142.76C73.4822 142.76 74.0555 142.091 74.2467 141.518C74.3422 141.136 74.9155 140.944 75.2978 141.136L78.3555 142.473L80.4578 143.524C81.4133 143.907 81.8911 144.862 81.9867 145.913C81.9867 146.2 81.7955 146.487 81.5089 146.487H70.8067C70.1378 146.487 69.5644 145.913 69.4689 145.244L69.3733 142.856L72.9089 142.76Z" fill="black"/>
<path d="M91.9246 132.058C91.9246 146.104 103.296 157.475 117.342 157.475C131.389 157.475 142.76 146.104 142.76 132.058C142.76 118.011 131.389 106.64 117.342 106.64C103.391 106.64 91.9246 118.011 91.9246 132.058ZM94.9823 132.058C94.9823 119.731 105.016 109.698 117.342 109.698C129.669 109.698 139.702 119.731 139.702 132.058C139.702 144.384 129.669 154.418 117.342 154.418C105.016 154.513 94.9823 144.48 94.9823 132.058Z" fill="#FFB512"/>
<path d="M17.0089 132.058C17.0089 146.104 28.3801 157.475 42.4267 157.475C56.4734 157.475 67.8445 146.104 67.8445 132.058C67.8445 118.011 56.4734 106.64 42.4267 106.64C28.3801 106.64 17.0089 118.011 17.0089 132.058ZM20.0667 132.058C20.0667 119.731 30.1001 109.698 42.4267 109.698C54.7534 109.698 64.7867 119.731 64.7867 132.058C64.7867 144.384 54.7534 154.418 42.4267 154.418C30.1001 154.513 20.0667 144.48 20.0667 132.058Z" fill="#FFB512"/>
<path d="M66.3155 89.7267L58.1933 90.2044C52.46 90.2044 50.0711 83.5156 52.2689 77.3044L69.66 81.1267C69.5644 81.2222 69.3733 89.7267 66.3155 89.7267Z" fill="#008ECC"/>
<path d="M109.889 98.1354H108.169C106.544 98.1354 105.302 96.7977 105.302 95.2688C105.302 93.6443 106.64 92.4021 108.169 92.4021H109.889V98.1354Z" fill="#002782"/>
<path d="M107.309 94.982C106.927 94.5998 106.449 94.5998 106.067 94.982L103.487 97.7531C103.773 98.3264 104.06 98.7086 104.251 99.282L107.309 96.2242C107.691 95.842 107.691 95.2686 107.309 94.982Z" fill="#002782"/>
<path d="M60.5823 94.5044L74.1512 134.829L105.589 104.347" stroke="#002782" stroke-width="1.6577" stroke-miterlimit="10"/>
<path d="M67.1756 90.2043H55.1356C54.0845 90.2043 53.1289 91.0643 53.1289 92.211V93.5488C53.1289 94.9821 54.2756 96.1288 55.7089 96.1288H56.9511C58.1934 96.1288 59.34 95.8421 60.3911 95.2688L62.9711 93.8355C63.3534 93.6443 63.8311 93.5488 64.2134 93.5488H66.6023C67.6534 93.5488 68.5134 92.6888 68.5134 91.6377C68.5134 90.7777 67.94 90.2043 67.1756 90.2043Z" fill="black"/>
<path d="M74.9157 142.186L42.5224 137.122C40.0379 136.835 38.2224 134.733 38.2224 132.344C38.2224 129.669 40.4201 127.471 43.0957 127.471H75.7757C79.8846 127.471 83.229 130.815 83.229 134.924C83.229 139.224 79.3113 142.664 74.9157 142.186Z" fill="#002782"/>
<path d="M69.6602 120.687H76.2536C79.4069 120.687 82.5602 119.54 84.8536 117.342L103.2 98.7087" stroke="#002782" stroke-width="1.6577" stroke-miterlimit="10"/>
<path d="M120.496 132.058L111.322 120.878L98.4224 85.0444H101.098" stroke="#002782" stroke-width="1.6577" stroke-miterlimit="10" stroke-linecap="round" stroke-linejoin="round"/>
<path d="M61.8246 97.6577L42.6179 131.198" stroke="#002782" stroke-width="1.6577" stroke-miterlimit="10"/>
<path d="M56.5689 106.831L52.8422 103.2H28.1889" stroke="#002782" stroke-width="1.6577" stroke-miterlimit="10" stroke-linecap="round" stroke-linejoin="round"/>
<path d="M76.7312 134.924L80.3623 125.178" stroke="#007BC6" stroke-width="0.8902" stroke-miterlimit="10" stroke-linecap="round"/>
<path d="M83.2291 126.516H77.5913C77.018 126.516 76.4446 126.038 76.4446 125.369C76.4446 124.796 76.9224 124.222 77.5913 124.222H83.2291C83.8024 124.222 84.3758 124.7 84.3758 125.369C84.2802 125.942 83.8024 126.516 83.2291 126.516Z" fill="#008ECC"/>
<path d="M75.7757 148.398H70.1379C69.5646 148.398 68.9912 147.92 68.9912 147.251C68.9912 146.678 69.469 146.104 70.1379 146.104H75.7757C76.349 146.104 76.9224 146.582 76.9224 147.251C76.9224 147.92 76.4446 148.398 75.7757 148.398Z" fill="#008ECC"/>
<path d="M69.5645 81.2222L57.1423 90.2044L81.1267 96.7977L75.2979 121.356L80.8401 121.642L90.6823 98.3266C92.5934 93.3577 91.7334 89.3444 86.669 87.3377L69.5645 81.2222Z" fill="#008ECC"/>
<path d="M56.3779 77.9731C56.3779 77.9731 52.5557 85.7131 62.7801 88.1976L85.4268 94.2176L78.069 119.253" stroke="#0069D0" stroke-width="0.7055" stroke-miterlimit="10"/>
<path d="M75.7757 119.253H81.7957" stroke="#0069D0" stroke-width="0.7055" stroke-miterlimit="10"/>
<path fill-rule="evenodd" clip-rule="evenodd" d="M79.8846 121.355C80.4579 121.355 81.0312 120.687 81.2223 120.113C81.3179 119.731 81.8912 119.54 82.2735 119.731L84.2801 121.069L86.3823 122.12C87.3379 122.502 87.8157 123.458 87.9112 124.509C87.9112 124.795 87.7201 125.082 87.4334 125.082H76.7312C76.0623 125.082 75.489 124.509 75.3935 123.84L75.2979 121.451L79.8846 121.355Z" fill="black"/>
<path d="M54.4668 75.6798L48.6379 74.5331C46.0579 73.8643 44.4335 71.2843 45.1024 68.7043L47.6824 58.1932C48.3513 55.6132 50.9313 53.9887 53.5113 54.6576L58.6713 55.8998C60.3913 56.282 61.3468 58.1932 60.5824 59.8176L54.4668 75.6798Z" fill="#FF7254"/>
<path fill-rule="evenodd" clip-rule="evenodd" d="M52.269 77.3044L69.469 81.1266L69.9468 72.3355C70.0423 72.7177 74.7245 68.7999 74.1512 66.2199C72.4312 58.2888 69.6601 55.3266 66.1245 54.8488C60.869 54.0844 59.6268 58.5755 55.9956 70.8066L52.269 77.3044Z" fill="#004CBB"/>
<path d="M70.1379 72.7176C69.0868 71.762 69.1824 71.2842 68.8957 71.0931C68.1313 70.5198 60.2001 63.7354 60.2001 63.7354C60.2001 63.7354 63.5446 73.0998 66.889 80.5531L69.5646 81.3176L70.1379 72.7176Z" fill="black"/>
<path d="M91.638 132.058C91.638 117.82 103.2 106.258 117.438 106.258" stroke="#002782" stroke-width="1.7804" stroke-miterlimit="10" stroke-linecap="round"/>
<path d="M16.7224 132.058C16.7224 117.82 28.2846 106.258 42.5224 106.258C56.7601 106.258 68.3224 117.82 68.3224 132.058" stroke="#002782" stroke-width="1.6577" stroke-miterlimit="10" stroke-linecap="round"/>
<path fill-rule="evenodd" clip-rule="evenodd" d="M94.2179 80.2666L95.3645 79.7888C96.2245 79.4066 97.1801 79.5022 97.9445 79.9799L100.716 82.4644C101.098 82.751 101.193 83.2288 101.193 83.7066C101.098 84.5666 100.238 85.1399 99.3779 84.8533L93.3579 83.8022L94.2179 80.2666Z" fill="#FFB512"/>
<path d="M70.9024 64.9777H69.6601V62.78C69.6601 60.0089 67.3668 57.7155 64.5957 57.7155H61.729C59.8179 57.7155 58.0979 58.7666 57.1424 60.3911L57.0468 60.5822L55.8046 61.06L55.3268 59.9133L56.1868 59.6266C57.429 57.7155 59.5313 56.5688 61.729 56.5688H64.5957C68.0357 56.5688 70.9024 59.4355 70.9024 62.8755V64.9777Z" fill="#FF7254"/>
<path d="M71.3801 65.6465L68.8001 60.4865C67.5578 58.1932 64.7867 57.2377 62.3978 58.3843C59.8178 59.6265 58.8623 62.971 60.4867 65.3599L63.9267 70.4243L71.3801 65.6465Z" fill="#004CBB"/>
<path d="M76.6357 74.4376L71.2846 65.3599L64.0223 70.4243L69.1823 77.591C70.6157 79.5976 72.7179 80.9354 75.1068 81.4132L93.8357 83.9932L95.269 79.7887L76.6357 74.4376Z" fill="#FFB512"/>
<path fill-rule="evenodd" clip-rule="evenodd" d="M71.0935 48.7332L73.6735 48.6377C73.6735 48.6377 73.1958 49.6888 72.1446 49.6888C71.3802 49.6888 71.0935 48.7332 71.0935 48.7332Z" fill="white"/>
<path d="M64.5001 48.2554C64.5001 48.2554 66.6979 42.5221 69.7556 40.7065C69.7556 40.7065 70.9979 40.4198 72.6223 41.8532C72.6223 41.8532 73.1957 42.331 73.769 43.0954C74.1512 43.6687 74.5334 44.6243 74.5334 45.4843C74.5334 45.4843 74.2468 43.4776 72.5268 43.191C70.0423 42.7132 67.0801 45.5798 64.5001 48.2554Z" fill="#008ECC"/>
<path d="M69.5644 52.8422C69.7555 52.8422 66.1244 50.7399 67.3666 44.8155C68.0355 41.6622 70.52 40.611 70.52 40.611C70.52 40.611 63.9266 38.7955 63.0666 44.7199C62.2066 49.8799 63.64 53.6066 69.5644 52.8422Z" fill="#79D3E6"/>
</svg>
