<svg width="310" height="256" viewBox="0 0 310 256" fill="none" xmlns="http://www.w3.org/2000/svg">
<path d="M37.3605 214.405H276.292C277.463 213.594 278.545 212.873 279.627 211.972C301.257 182.86 296.481 148.07 281.7 120.221C273.678 105.079 259.978 96.3365 244.026 92.9117C224.558 88.6756 212.841 97.4181 193.013 97.6885C172.283 97.9589 158.403 76.7786 135.961 72.3623C97.927 64.9718 68.1846 85.5211 59.2618 112.92C51.8713 135.272 16.5408 207.015 37.3605 214.405Z" fill="#E1F6F8"/>
<path d="M79.0901 94.0821C79.2704 93.0006 79.2704 92.0092 79.2704 90.9276C78.8197 82.1852 71.7897 75.065 63.1373 74.5242C53.0429 73.8933 44.7511 81.8246 44.7511 91.8289C44.7511 92.6401 44.8412 93.5414 44.9313 94.3525C46.0129 101.563 44.1202 108.863 39.6137 114.541C35.4678 119.679 33.1245 126.258 33.3047 133.468C33.7554 148.88 46.5537 161.228 61.9657 161.318C77.9185 161.408 90.8069 148.52 90.8069 132.567C90.8069 125.717 88.3734 119.408 84.4077 114.541C79.721 108.683 78.0987 101.292 79.0901 94.0821Z" fill="white"/>
<path d="M61.9658 93.542V157.804" stroke="#E1F6F8" stroke-width="0.8" stroke-miterlimit="10"/>
<path d="M54.3047 103.547L61.9656 111.117" stroke="#E1F6F8" stroke-width="0.8" stroke-miterlimit="10"/>
<path d="M61.9658 124.999L74.5838 112.291" stroke="#E1F6F8" stroke-width="0.8" stroke-miterlimit="10"/>
<path d="M61.9658 138.156L45.9229 122.204" stroke="#E1F6F8" stroke-width="0.8" stroke-miterlimit="10"/>
<path d="M99.9097 145.456C102.163 142.932 102.884 139.507 101.712 136.353C101.171 134.731 100.811 133.018 100.811 131.306C100.811 127.881 101.983 124.726 103.965 122.203C105.678 119.949 106.489 117.065 105.768 114.361C105.498 113.1 105.408 111.748 105.588 110.396C106.309 105.98 109.914 102.464 114.42 101.924C120.549 101.203 125.686 105.98 125.686 112.018C125.686 112.829 125.596 113.731 125.416 114.452C124.785 117.155 125.416 119.949 127.219 122.113C129.292 124.636 130.463 127.881 130.463 131.396C130.463 133.198 130.103 134.911 129.562 136.533C128.39 139.598 129.021 143.113 131.274 145.546C134.88 149.512 137.043 154.919 136.682 160.868C136.141 171.413 127.579 180.155 116.944 180.786C104.687 181.507 94.502 171.864 94.502 159.696C94.5921 154.108 96.5749 149.241 99.9097 145.456Z" fill="white"/>
<path d="M113.868 219.701L117.474 219.701L117.474 166.796L113.868 166.796L113.868 219.701Z" fill="white"/>
<path d="M170.481 214.405H225.189V159.696L198.42 131.847L170.481 159.696V214.405Z" fill="white"/>
<path d="M87.1119 152.938C87.2922 152.938 87.3823 152.847 87.4724 152.667L88.7343 149.963C88.8244 149.783 88.7343 149.513 88.554 149.423C88.3737 149.332 88.1033 149.423 88.0132 149.603L86.7514 152.307C86.6613 152.487 86.7514 152.757 86.9317 152.847C87.0218 152.847 87.0218 152.938 87.1119 152.938Z" fill="#FAC47D"/>
<path d="M88.0137 153.477C88.1939 153.477 88.284 153.387 88.3742 153.297L90.357 149.962C90.4471 149.782 90.4471 149.511 90.1767 149.421C89.9965 149.331 89.7261 149.331 89.636 149.601L87.6531 152.936C87.563 153.116 87.563 153.387 87.8334 153.477C87.9235 153.477 88.0137 153.477 88.0137 153.477Z" fill="#FAC47D"/>
<path d="M89.0054 154.11C89.1856 154.11 89.2757 154.02 89.3659 153.93L91.3487 150.595C91.4388 150.415 91.4388 150.145 91.1684 150.055C90.9882 149.965 90.7178 149.965 90.6277 150.235L88.6448 153.57C88.5547 153.75 88.5547 154.02 88.8251 154.11C88.8251 154.11 88.9152 154.11 89.0054 154.11Z" fill="#FAC47D"/>
<path d="M89.9959 154.739C90.1761 154.739 90.2662 154.649 90.3564 154.559L91.7083 152.126C91.7984 151.945 91.7083 151.675 91.528 151.585C91.3478 151.495 91.0774 151.585 90.9873 151.765L89.6353 154.109C89.5452 154.289 89.6353 154.559 89.8156 154.649C89.8156 154.649 89.9057 154.739 89.9959 154.739Z" fill="#FAC47D"/>
<path d="M85.9401 155.55L86.0302 152.847L87.8328 151.495L90.807 153.568L89.0946 156.812L85.9401 155.55Z" fill="#FAC47D"/>
<path d="M86.4809 154.197C86.7513 154.197 86.9316 154.017 86.9316 153.747V150.772C86.9316 150.502 86.7513 150.322 86.4809 150.322C86.2105 150.322 86.0303 150.502 86.0303 150.772V153.747C86.0303 154.017 86.2105 154.197 86.4809 154.197Z" fill="#FAC47D"/>
<path d="M92.5193 168.978L97.4764 187.365C97.6567 188.086 97.1159 188.807 96.3047 188.807C95.764 188.807 95.3133 188.446 95.133 187.905L90.176 169.519C89.9957 168.798 90.5365 168.077 91.3476 168.077C91.8884 168.167 92.3391 168.528 92.5193 168.978Z" fill="#FF7254"/>
<path d="M38.4422 168.978L43.3993 187.365C43.5795 188.086 43.0387 188.807 42.2276 188.807C41.6868 188.807 41.2362 188.446 41.0559 187.905L36.0988 169.519C35.9186 168.798 36.4593 168.077 37.2705 168.077C37.8113 168.167 38.2619 168.528 38.4422 168.978Z" fill="#FF7254"/>
<path d="M107.931 180.514H27.0858C26.0944 180.514 25.2832 181.506 25.5536 182.497C25.7338 183.218 26.3647 183.669 27.0858 183.669H107.841C108.833 183.669 109.644 182.677 109.373 181.686C109.193 181.055 108.652 180.514 107.931 180.514Z" fill="#FFB612"/>
<path d="M105.047 169.881H24.292C23.3005 169.881 22.4894 170.872 22.7598 171.864C22.94 172.585 23.5709 173.035 24.292 173.035H105.047C106.039 173.035 106.85 172.044 106.579 171.053C106.399 170.332 105.768 169.881 105.047 169.881Z" fill="#FFB612"/>
<path d="M106.489 175.197H25.6438C24.6523 175.197 23.8412 176.188 24.1116 177.18C24.2918 177.901 24.9227 178.352 25.6438 178.352H106.399C107.391 178.352 108.202 177.36 107.931 176.369C107.841 175.648 107.21 175.197 106.489 175.197Z" fill="#FFB612"/>
<path d="M114.15 215.214H116.313L110.184 192.411H108.021L114.15 215.214Z" fill="#008FCD"/>
<path d="M91.1675 215.214H89.0044L95.1331 192.411H97.2061L91.1675 215.214Z" fill="#008FCD"/>
<path d="M57.4592 215.214H59.6223L53.4935 192.411H51.3304L57.4592 215.214Z" fill="#008FCD"/>
<path d="M35.2875 215.214H33.1244L39.2531 192.411H41.4162L35.2875 215.214Z" fill="#008FCD"/>
<path d="M28.8884 190.25H118.296C119.468 190.25 120.459 189.258 120.459 188.087C120.459 186.915 119.468 185.924 118.296 185.924H28.8884C27.7168 185.924 26.7253 186.915 26.7253 188.087C26.7253 189.258 27.7168 190.25 28.8884 190.25Z" fill="#FFB612"/>
<path d="M28.8884 190.25H48.2661C49.4378 190.25 50.4292 189.258 50.4292 188.087C50.4292 186.915 49.4378 185.924 48.2661 185.924H28.8884C27.7168 185.924 26.7253 186.915 26.7253 188.087C26.7253 189.258 27.7168 190.25 28.8884 190.25Z" fill="#FF7254"/>
<path d="M23.8413 173.033H26.2747C27.176 173.033 27.8069 172.312 27.8069 171.501C27.8069 170.599 27.0859 169.969 26.2747 169.969H23.8413C22.94 169.969 22.3091 170.69 22.3091 171.501C22.3091 172.312 22.94 173.033 23.8413 173.033Z" fill="#FF7254"/>
<path d="M24.8325 178.352H27.266C28.1672 178.352 28.7981 177.631 28.7981 176.82C28.7981 175.918 28.0771 175.288 27.266 175.288H24.8325C23.9312 175.288 23.3003 176.009 23.3003 176.82C23.3003 177.631 24.0213 178.352 24.8325 178.352Z" fill="#FF7254"/>
<path d="M25.9142 183.67H28.3477C29.249 183.67 29.8799 182.949 29.8799 182.138C29.8799 181.237 29.1588 180.606 28.3477 180.606H25.9142C25.0129 180.606 24.382 181.327 24.382 182.138C24.2919 182.949 25.0129 183.67 25.9142 183.67Z" fill="#FF7254"/>
<path d="M35.3372 192.401L112.758 192.401L112.758 190.148L35.3372 190.148L35.3372 192.401Z" fill="#008FCD"/>
<path d="M78.6393 163.932L69.4461 156.451L68.1843 163.571C68.1843 163.571 75.665 170.331 79.3603 170.331C83.0556 170.331 89.1843 156.811 89.1843 156.811L86.0298 154.468L78.6393 163.932Z" fill="#79D4E7"/>
<path d="M70.9785 165.915L70.4377 159.065L74.133 168.168C72.9614 167.447 71.8798 166.636 70.9785 165.915Z" fill="#38BFDB"/>
<path d="M72.2404 178.983H53.4936L52.9529 169.52L52.6825 163.301C52.5923 161.679 53.043 160.056 53.9443 158.704C55.2962 156.721 57.5494 155.55 59.8928 155.55H66.0215C70.7082 155.55 70.8885 158.614 71.1589 163.752L71.6095 172.764L72.2404 178.983Z" fill="#79D4E7"/>
<path d="M52.9529 169.521L52.6825 163.302C52.6825 163.122 52.6825 162.941 52.6825 162.761C52.9529 162.761 53.2233 162.851 53.4035 162.851C54.8456 163.122 56.1074 163.933 57.2791 164.834C58.0902 165.465 58.8112 166.186 59.5323 166.997C62.9572 170.422 66.9228 173.216 70.9786 175.83C71.3391 176.01 71.6997 176.281 71.97 176.461L72.1503 178.984H53.4937L52.9529 169.521Z" fill="#38BFDB"/>
<path d="M72.601 186.013L72.0602 177.812C81.1632 177.812 95.1331 176.64 94.5022 185.473C93.5108 195.387 91.9786 203.138 90.4464 212.962L87.0215 212.782C86.661 203.859 86.661 186.104 86.661 186.104H72.601V186.013Z" fill="black"/>
<path d="M63.7683 186.014V177.812C73.2318 177.812 83.867 176.82 83.867 185.473C82.8756 195.387 81.3434 203.138 79.8112 212.962L76.3863 212.782C76.0258 203.859 76.0258 186.104 76.0258 186.104H63.7683V186.014Z" fill="#004CBC"/>
<path d="M53.3132 177.813C53.5836 182.409 56.9184 186.014 62.0557 186.014H64.8497V177.813H53.3132Z" fill="#004CBC"/>
<path d="M63.6782 148.25H62.2361C60.7941 148.25 59.6224 147.168 59.6224 145.726V144.825C59.5323 142.571 61.3348 140.769 63.4979 140.679L63.6782 148.25Z" fill="#FF7254"/>
<path d="M64.9399 148.7L65.9313 156.001L64.4892 158.615L61.0643 156.001L60.5236 148.7H64.9399Z" fill="#FAC47D"/>
<path d="M65.3003 148.881L65.3905 153.658C63.2274 153.658 61.4248 151.856 61.4248 149.693V148.971L65.3003 148.881Z" fill="#004CBC"/>
<path d="M65.751 154.559C63.4076 154.199 61.4248 152.126 61.4248 149.962V149.241H65.03L65.751 154.559Z" fill="#42145F"/>
<path d="M64.7595 153.569H64.6693C62.4161 153.66 60.5234 151.857 60.5234 149.604L60.4333 144.827C60.3432 142.574 62.1457 140.681 64.399 140.681H64.4891C66.7423 140.591 68.635 142.393 68.635 144.647L68.7251 149.423C68.8153 151.677 67.0127 153.569 64.7595 153.569Z" fill="#FAC47D"/>
<path d="M60.4339 148.25C61.1809 148.25 61.7863 147.644 61.7863 146.898C61.7863 146.151 61.1809 145.545 60.4339 145.545C59.687 145.545 59.0815 146.151 59.0815 146.898C59.0815 147.644 59.687 148.25 60.4339 148.25Z" fill="#FAC47D"/>
<path d="M61.9657 147.168V148.34C61.9657 148.61 62.0559 148.79 62.2361 148.971C62.5966 149.331 63.2275 149.331 63.5881 148.971L64.219 148.34C64.3992 148.16 64.6696 148.069 64.8499 148.069L67.734 147.979C68.2747 147.979 68.6353 148.34 68.6353 148.881V149.511C68.7254 151.765 66.9228 153.657 64.5795 153.748C62.3263 153.838 60.4336 152.035 60.3434 149.692L60.2533 145.726C61.2447 145.636 61.8756 146.267 61.9657 147.168Z" fill="#FF7254"/>
<path d="M65.03 148.88C65.03 148.88 65.7513 149.601 66.4726 149.601C67.1037 149.601 67.7348 148.79 67.7348 148.79L65.03 148.88Z" fill="#F6E4EB"/>
<path d="M67.1932 143.653L62.146 143.744C61.8756 143.744 61.6954 143.924 61.6954 144.194C61.6954 145.005 61.0645 145.636 60.2533 145.636V144.014C60.2533 142.211 61.6052 140.769 63.4078 140.679L66.6524 140.589C67.5537 140.589 68.3649 141.31 68.3649 142.302C68.5451 143.023 67.9142 143.653 67.1932 143.653Z" fill="#FF7254"/>
<path d="M75.6653 215.215H85.3091C85.6696 215.215 85.8498 214.855 85.7597 214.584L85.6696 214.404C85.4893 213.863 85.0387 213.503 84.4979 213.413L81.7039 212.511L80.5322 211.25C80.2618 210.979 79.9013 210.979 79.6309 211.25C79.3606 211.43 79.0902 211.61 78.5494 211.61C77.8284 211.61 77.4679 211.25 76.837 210.979C76.4764 210.799 76.1159 211.069 76.1159 211.43L75.6653 215.215Z" fill="#FF7254"/>
<path d="M86.3906 215.215H96.0344C96.3949 215.215 96.5752 214.855 96.485 214.584L96.3949 214.404C96.2147 213.863 95.764 213.503 95.2232 213.413L92.4292 212.511L91.2576 211.25C90.9872 210.979 90.6267 210.979 90.3563 211.25C90.0859 211.43 89.8155 211.61 89.2747 211.61C88.5537 211.61 88.1932 211.25 87.5623 210.979C87.2018 210.799 86.8413 211.069 86.8413 211.43L86.3906 215.215Z" fill="#FF7254"/>
<path d="M64.4892 158.615L63.5879 159.877L60.3433 155.55L60.9742 154.919L64.4892 158.615Z" fill="white"/>
<path d="M64.4893 158.614L65.8412 155.55L66.1116 159.606L64.4893 158.614Z" fill="white"/>
<path d="M64.3092 177.721H68.9959L69.9874 169.88H63.408L64.3092 177.721Z" fill="white"/>
<path d="M63.5879 171.142H69.8969C70.3476 171.142 70.7081 170.782 70.7081 170.331C70.7081 169.88 70.3476 169.52 69.8969 169.52H63.5879C63.1373 169.52 62.7767 169.88 62.7767 170.331C62.6866 170.782 63.0471 171.142 63.5879 171.142Z" fill="#004CBC"/>
<path d="M64.6698 168.709H68.7256C68.9059 168.709 69.0861 168.799 69.1762 168.979L69.5367 169.971H63.8586L64.3093 168.979C64.3093 168.799 64.4895 168.709 64.6698 168.709Z" fill="#004CBC"/>
<path d="M62.1459 174.117H65.9313C66.6523 174.117 67.1931 174.658 67.1931 175.379V176.551C67.1931 177.182 66.7424 177.632 66.1115 177.632H61.8755L62.1459 174.117Z" fill="#FAC47D"/>
<path d="M53.674 159.065L47.4551 172.945C47.2748 173.396 47.1847 173.846 47.1847 174.297C47.1847 176.19 48.7169 177.722 50.6096 177.722H62.777V173.486L53.3134 173.035L58.7212 162.58L53.674 159.065Z" fill="#79D4E7"/>
<path d="M223.657 164.654V214.585H308.017V164.654H310L299.094 131.937L265.927 111.568L232.669 131.937L221.764 164.654H223.657Z" fill="white"/>
<path d="M291.343 154.56H276.652V177.452H291.343V154.56Z" fill="#E1F6F8"/>
<path d="M258.897 154.56H244.206V177.452H258.897V154.56Z" fill="white"/>
<path d="M284.313 154.56H283.682V177.633H284.313V154.56Z" fill="white"/>
<path d="M291.343 165.916H276.652V166.547H291.343V165.916Z" fill="white"/>
<path d="M247.901 149.602C247.721 151.314 249.073 151.765 249.524 151.765C249.884 151.855 250.335 151.675 250.695 151.495C251.777 150.864 252.408 148.16 253.399 147.619C255.022 146.718 257.004 146.718 258.897 147.078C259.438 147.168 260.069 147.349 260.61 147.168C261.241 146.988 261.691 146.447 261.871 145.816C262.052 145.186 261.962 144.555 261.781 143.924C261.601 143.293 260.519 142.211 260.249 141.58C259.348 139.237 260.339 136.894 259.077 134.731C258.176 133.108 256.374 132.027 254.571 131.846C252.768 131.666 250.876 132.297 249.434 133.559C248.713 134.19 247.721 135.632 247.811 136.623C247.901 137.254 248.082 138.065 248.352 138.696C249.253 140.499 249.794 142.392 249.884 144.284C250.155 145.997 248.082 147.619 247.901 149.602Z" fill="#79D4E7"/>
<path d="M239.97 237.478C267.297 237.478 289.451 236.993 289.451 236.396C289.451 235.799 267.297 235.314 239.97 235.314C212.643 235.314 190.489 235.799 190.489 236.396C190.489 236.993 212.643 237.478 239.97 237.478Z" fill="#E1F6F8"/>
<path fill-rule="evenodd" clip-rule="evenodd" d="M252.768 143.652H253.76C256.644 143.652 258.176 141.579 258.176 139.146L258.086 136.442C258.086 134.369 256.283 132.747 253.76 132.747C250.876 132.747 248.532 134.459 248.442 137.253V139.326C248.442 142.12 249.614 143.652 252.768 143.652Z" fill="#FFB612"/>
<path d="M252.949 223.327L266.919 173.486L254.931 172.224L248.532 222.336L249.614 224.319L252.949 223.327Z" fill="#008FCD"/>
<path fill-rule="evenodd" clip-rule="evenodd" d="M249.794 223.328C249.253 223.328 248.803 222.697 248.622 222.247C248.532 221.886 248.082 221.706 247.721 221.886L245.017 223.058L243.125 223.959C242.223 224.32 241.863 225.131 241.773 226.032C241.773 226.302 241.953 226.573 242.223 226.573H251.777C252.408 226.573 252.858 226.122 252.949 225.491L253.039 223.328H249.794Z" fill="black"/>
<path d="M210.408 191.331C197.97 191.331 187.876 201.425 187.876 213.863C187.876 226.301 197.97 236.395 210.408 236.395C222.846 236.395 232.94 226.301 232.94 213.863C232.94 201.425 222.846 191.331 210.408 191.331ZM210.408 233.692C199.502 233.692 190.58 224.769 190.58 213.863C190.58 202.868 199.502 194.035 210.408 194.035C221.313 194.035 230.236 202.958 230.236 213.863C230.236 224.859 221.313 233.692 210.408 233.692Z" fill="#FFB612"/>
<path d="M276.743 191.331C264.305 191.331 254.211 201.425 254.211 213.863C254.211 226.301 264.305 236.395 276.743 236.395C289.181 236.395 299.275 226.301 299.275 213.863C299.365 201.425 289.271 191.331 276.743 191.331ZM276.743 233.692C265.837 233.692 256.914 224.769 256.914 213.863C256.914 202.868 265.837 194.035 276.743 194.035C287.648 194.035 296.571 202.958 296.571 213.863C296.661 224.859 287.738 233.692 276.743 233.692Z" fill="#FFB612"/>
<path d="M255.653 176.37L262.863 176.73C267.91 176.73 270.073 170.872 268.18 165.374L252.768 168.799C252.768 168.799 252.949 176.37 255.653 176.37Z" fill="#008FCD"/>
<path d="M216.987 183.761H218.52C219.962 183.761 221.043 182.589 221.043 181.237C221.043 179.795 219.871 178.714 218.52 178.714H216.987V183.761Z" fill="#002783"/>
<path d="M219.331 180.967C219.601 180.697 220.142 180.697 220.412 180.967L222.756 183.401C222.485 183.851 222.215 184.302 222.035 184.753L219.331 182.049C218.97 181.778 218.97 181.238 219.331 180.967Z" fill="#002783"/>
<path d="M260.7 180.517L248.713 216.298L220.863 189.259" stroke="#002783" stroke-width="1.5574" stroke-miterlimit="10"/>
<path d="M254.931 176.731H265.567C266.558 176.731 267.279 177.542 267.279 178.444V179.615C267.279 180.877 266.198 181.959 264.936 181.959H263.854C262.773 181.959 261.691 181.688 260.79 181.148L258.537 179.886C258.176 179.705 257.816 179.615 257.455 179.615H255.382C254.481 179.615 253.67 178.894 253.67 177.903C253.67 177.272 254.21 176.731 254.931 176.731Z" fill="black"/>
<path d="M248.082 222.785L276.743 218.279C278.906 218.008 280.528 216.206 280.528 214.043C280.528 211.699 278.635 209.717 276.202 209.717H247.27C243.665 209.717 240.691 212.691 240.691 216.296C240.691 220.171 244.116 223.236 248.082 222.785Z" fill="#002783"/>
<path d="M252.678 203.769H246.82C244.026 203.769 241.232 202.688 239.159 200.795L222.846 184.211" stroke="#002783" stroke-width="1.5574" stroke-miterlimit="10"/>
<path d="M207.614 213.864L215.726 203.95L227.262 172.224H224.829" stroke="#002783" stroke-width="1.5574" stroke-miterlimit="10" stroke-linecap="round" stroke-linejoin="round"/>
<path d="M259.618 183.4L276.652 213.142" stroke="#002783" stroke-width="1.5574" stroke-miterlimit="10"/>
<path d="M264.305 191.512L267.55 188.267H289.451" stroke="#002783" stroke-width="1.5574" stroke-miterlimit="10" stroke-linecap="round" stroke-linejoin="round"/>
<path d="M246.459 216.387L243.215 207.825" stroke="#007BC7" stroke-width="0.8363" stroke-miterlimit="10" stroke-linecap="round"/>
<path d="M240.691 208.907H245.738C246.279 208.907 246.73 208.456 246.73 207.916C246.73 207.375 246.279 206.924 245.738 206.924H240.691C240.15 206.924 239.7 207.375 239.7 207.916C239.7 208.456 240.15 208.907 240.691 208.907Z" fill="#008FCD"/>
<path d="M247.271 228.285H252.318C252.859 228.285 253.309 227.834 253.309 227.294C253.309 226.753 252.859 226.302 252.318 226.302H247.271C246.73 226.302 246.279 226.753 246.279 227.294C246.279 227.834 246.73 228.285 247.271 228.285Z" fill="#008FCD"/>
<path d="M252.768 168.8L263.764 176.731L242.494 182.59L247.721 204.311L242.854 204.581L234.112 183.941C232.399 179.525 233.12 176.01 237.717 174.208L252.768 168.8Z" fill="#008FCD"/>
<path d="M264.485 165.916C264.485 165.916 267.82 172.766 258.807 175.019L238.708 180.337L245.288 202.508" stroke="#0069D1" stroke-width="0.6628" stroke-miterlimit="10"/>
<path d="M247.27 202.508H241.953" stroke="#0069D1" stroke-width="0.6628" stroke-miterlimit="10"/>
<path fill-rule="evenodd" clip-rule="evenodd" d="M243.665 204.309C243.125 204.309 242.674 203.679 242.494 203.228C242.404 202.867 241.953 202.687 241.592 202.867L239.79 204.039L237.897 204.94C236.996 205.301 236.635 206.112 236.545 207.013C236.545 207.284 236.725 207.554 236.996 207.554H246.459C247.09 207.554 247.541 207.103 247.631 206.472L247.721 204.309H243.665Z" fill="black"/>
<path d="M266.198 163.842L271.425 162.761C273.678 162.22 275.12 159.877 274.58 157.623L272.326 148.25C271.786 145.997 269.442 144.555 267.189 145.095L262.683 146.177C261.15 146.538 260.339 148.16 260.97 149.602L266.198 163.842Z" fill="#FF7254"/>
<path fill-rule="evenodd" clip-rule="evenodd" d="M268.09 165.375L252.859 168.8L252.498 161.049C252.408 161.409 248.262 157.984 248.713 155.641C250.245 148.611 252.678 145.997 255.833 145.546C260.52 144.915 261.601 148.791 264.756 159.697L268.09 165.375Z" fill="#004CBC"/>
<path d="M252.318 161.319C253.309 160.508 253.219 160.057 253.399 159.877C254.12 159.336 261.15 153.387 261.15 153.387C261.15 153.387 258.176 161.769 255.292 168.259L252.949 168.89L252.318 161.319Z" fill="black"/>
<path d="M233.21 213.862C233.21 201.244 223.026 191.06 210.408 191.06" stroke="#002783" stroke-width="1.6726" stroke-miterlimit="10" stroke-linecap="round"/>
<path d="M299.635 213.862C299.635 201.244 289.451 191.06 276.833 191.06C264.215 191.06 254.03 201.244 254.03 213.862" stroke="#002783" stroke-width="1.5574" stroke-miterlimit="10" stroke-linecap="round"/>
<path fill-rule="evenodd" clip-rule="evenodd" d="M230.957 167.988L229.966 167.537C229.245 167.177 228.344 167.267 227.623 167.718L225.189 169.971C224.919 170.241 224.738 170.692 224.829 171.052C224.919 171.864 225.73 172.314 226.451 172.134L231.769 171.233L230.957 167.988Z" fill="#FFB612"/>
<path d="M251.597 154.379H252.768V152.396C252.768 149.963 254.751 147.89 257.275 147.89H259.798C261.511 147.89 263.043 148.791 263.854 150.233L263.944 150.413L265.026 150.864L265.386 149.783L264.665 149.512C263.584 147.8 261.691 146.808 259.708 146.808H257.185C254.12 146.808 251.597 149.332 251.597 152.396V154.379Z" fill="#FF7254"/>
<path d="M251.146 155.01L253.489 150.503C254.571 148.43 257.095 147.619 259.168 148.61C261.511 149.782 262.232 152.666 260.79 154.829L257.725 159.336L251.146 155.01Z" fill="#004CBC"/>
<path d="M246.549 162.85L251.326 154.828L257.815 159.335L253.219 165.734C251.957 167.446 250.064 168.708 247.901 169.069L231.318 171.322L229.966 167.627L246.549 162.85Z" fill="#FFB612"/>
<path fill-rule="evenodd" clip-rule="evenodd" d="M251.417 140.048L249.163 139.958C249.163 139.958 249.614 140.95 250.516 140.86C251.147 140.86 251.417 140.048 251.417 140.048Z" fill="white"/>
<path d="M257.275 139.599C257.275 139.599 255.382 134.551 252.678 132.929C252.678 132.929 251.597 132.659 250.155 133.921C250.155 133.921 249.614 134.281 249.163 135.002C248.803 135.543 248.532 136.354 248.442 137.165C248.442 137.165 248.713 135.453 250.245 135.182C252.408 134.642 255.022 137.255 257.275 139.599Z" fill="#008FCD"/>
<path d="M252.768 143.653C252.678 143.653 255.833 141.76 254.751 136.533C254.12 133.739 251.957 132.838 251.957 132.838C251.957 132.838 257.816 131.215 258.627 136.533C259.258 141.039 258.086 144.284 252.768 143.653Z" fill="#79D4E7"/>
<path d="M204.73 156.724H190.94V175.741H204.73V156.724Z" fill="#E1F6F8"/>
<path d="M198.24 156.632H197.609V175.83H198.24V156.632Z" fill="white"/>
<path d="M204.73 166.097H190.94V166.728H204.73V166.097Z" fill="white"/>
<path fill-rule="evenodd" clip-rule="evenodd" d="M155.88 122.655C151.284 122.655 146.236 123.286 145.696 142.574H161.648C161.558 142.574 165.254 122.655 155.88 122.655Z" fill="black"/>
<path d="M154.077 255.956C175.083 255.956 192.112 255.431 192.112 254.784C192.112 254.137 175.083 253.613 154.077 253.613C133.072 253.613 116.043 254.137 116.043 254.784C116.043 255.431 133.072 255.956 154.077 255.956Z" fill="#E1F6F8"/>
<path fill-rule="evenodd" clip-rule="evenodd" d="M152.275 142.214L158.584 142.394L157.322 133.922L151.734 132.48L152.275 142.214Z" fill="#FF7254"/>
<path d="M154.438 137.887L158.223 139.87L157.773 136.986L154.438 137.887Z" fill="#F25A37"/>
<path fill-rule="evenodd" clip-rule="evenodd" d="M178.683 242.438L180.665 249.377L183.55 249.558C184.451 249.648 185.352 250.189 185.713 251C185.893 251.45 185.713 251.991 185.262 252.171L176.88 255.056C176.249 255.236 175.618 254.965 175.438 254.335L172.193 244.33L178.683 242.438Z" fill="#79D4E7"/>
<path fill-rule="evenodd" clip-rule="evenodd" d="M135.781 244.148L132.266 250.367L134.159 252.53C134.79 253.251 134.97 254.333 134.61 255.234C134.429 255.685 133.889 255.865 133.528 255.594L126.408 252.079L125.597 251.629C125.056 251.358 124.786 250.637 125.056 250.097L129.833 240.723L135.781 244.148Z" fill="#79D4E7"/>
<path fill-rule="evenodd" clip-rule="evenodd" d="M164.442 172.947L180.125 239.913C180.485 241.445 179.584 243.067 177.962 243.428L172.193 244.96C170.661 245.411 169.039 244.509 168.588 242.887L148.76 174.66L164.442 172.947Z" fill="black"/>
<path fill-rule="evenodd" clip-rule="evenodd" d="M161.017 173.669L156.06 208.909C155.7 211.523 154.798 213.956 153.537 216.299L139.747 243.608C138.846 245.321 136.683 245.952 135.06 244.96L130.464 242.166C129.022 241.265 128.481 239.463 129.202 237.93L141.459 211.072C141.459 211.072 142 197.192 142.811 185.385C143.172 180.158 144.524 174.75 146.597 173.038C151.824 168.892 161.017 173.669 161.017 173.669Z" fill="#004CBC"/>
<path fill-rule="evenodd" clip-rule="evenodd" d="M146.957 172.947H164.442L164.082 158.436C164.082 158.436 166.245 156.724 166.245 153.93C166.245 150.235 163.811 148.522 161.558 146.179C159.395 143.926 159.305 142.213 155.88 142.213C150.472 142.213 145.605 147.08 144.794 156.453C144.434 161.05 144.614 167.089 144.794 170.784C144.884 172.046 145.786 172.947 146.957 172.947Z" fill="#FFB612"/>
<path fill-rule="evenodd" clip-rule="evenodd" d="M157.052 153.208L164.352 167.99L164.442 172.947H158.404L154.077 168.53L157.052 153.208Z" fill="#FF9E12"/>
<path fill-rule="evenodd" clip-rule="evenodd" d="M171.022 183.312L173.365 186.196C173.726 186.647 173.635 187.278 173.275 187.638L173.365 187.819C173.545 188.089 173.455 188.359 173.275 188.63C173.005 188.9 172.644 188.9 172.374 188.72L172.193 188.63L171.833 188.9C171.562 189.081 171.202 189.08 170.932 188.99L170.751 188.9L170.571 188.99C170.211 189.171 169.85 189.081 169.58 188.9L165.163 185.025L169.129 181.149L171.022 183.312Z" fill="#FF7254"/>
<path fill-rule="evenodd" clip-rule="evenodd" d="M171.292 184.574L172.734 184.935C173.185 185.025 173.545 184.754 173.545 184.304C173.545 184.033 173.365 183.853 173.185 183.763L169.76 181.96L168.588 183.673L169.76 184.935L171.292 184.574Z" fill="#FF7254"/>
<path fill-rule="evenodd" clip-rule="evenodd" d="M159.035 143.475L158.764 141.042H151.915V144.016L159.035 143.475Z" fill="#FFB612"/>
<path d="M140.017 191.331L148.309 191.872C150.292 191.962 152.004 190.43 152.185 188.447L152.545 182.228C152.635 180.245 151.103 178.533 149.12 178.353L140.828 177.812C138.846 177.722 137.133 179.254 136.953 181.237L136.592 187.456C136.502 189.529 138.034 191.241 140.017 191.331Z" fill="#008FCD"/>
<path d="M152.365 180.337L149.301 183.942C148.67 184.663 147.768 185.023 146.867 184.933L141.55 184.573C140.468 184.483 139.567 183.852 139.116 182.86L137.494 179.255" stroke="#0069D1" stroke-width="0.9256" stroke-miterlimit="10" stroke-linecap="round"/>
<path d="M150.834 180.247C150.834 180.247 156.782 161.049 156.782 149.693L149.932 148.431L139.027 179.436" stroke="#008FCD" stroke-width="1.8513" stroke-miterlimit="10"/>
<path fill-rule="evenodd" clip-rule="evenodd" d="M148.58 147.081L150.833 169.073L166.335 186.648L171.472 182.141L159.305 166.098L157.502 146.901L148.58 147.081Z" fill="#FFB612"/>
<path fill-rule="evenodd" clip-rule="evenodd" d="M149.751 131.668C150.202 135.454 154.528 138.969 158.313 138.608C162.64 138.157 163.361 135.454 163 131.668C162.64 127.522 160.206 123.647 156.15 123.647C151.283 123.647 149.12 125.99 149.751 131.668Z" fill="#FF7254"/>
<path fill-rule="evenodd" clip-rule="evenodd" d="M156.15 123.647C156.331 123.647 156.511 123.647 156.781 123.647C156.781 123.917 155.249 125.449 154.798 127.072C153.897 130.406 155.88 141.222 153.176 142.574H150.743C150.743 142.574 149.841 132.93 149.661 131.578C148.94 125.9 151.283 123.647 156.15 123.647Z" fill="black"/>
<path d="M153.897 133.47C154.744 133.47 155.429 132.784 155.429 131.938C155.429 131.092 154.744 130.406 153.897 130.406C153.051 130.406 152.365 131.092 152.365 131.938C152.365 132.784 153.051 133.47 153.897 133.47Z" fill="#FF7254"/>
<path fill-rule="evenodd" clip-rule="evenodd" d="M155.79 123.647C156.06 123.647 156.331 123.647 156.601 123.647C156.872 123.647 157.052 123.647 157.322 123.647C157.412 123.647 157.412 123.647 157.502 123.647C157.683 123.647 157.863 123.737 158.043 123.737H158.133C159.305 124.007 160.026 124.188 161.648 126.621L154.078 129.866L153.627 123.917C154.078 123.737 154.528 123.647 154.979 123.647H155.069C155.339 123.647 155.52 123.647 155.79 123.647Z" fill="black"/>
<path d="M161.379 134.192C161.379 134.192 161.108 135.004 160.117 134.914C159.125 134.823 158.674 133.922 158.674 133.922" stroke="black" stroke-width="0.4659" stroke-miterlimit="10"/>
</svg>
