<?xml version="1.0" encoding="UTF-8"?>
<svg width="200px" height="200px" viewBox="0 0 200 200" version="1.1" xmlns="http://www.w3.org/2000/svg" xmlns:xlink="http://www.w3.org/1999/xlink">
    <!-- Generator: Sketch 42 (36781) - http://www.bohemiancoding.com/sketch -->
    <title>trello-mark-white</title>
    <desc>Created with Sketch.</desc>
    <defs></defs>
    <g id="Page-1" stroke="none" stroke-width="1" fill="none" fill-rule="evenodd">
        <g id="trello-mark-white" fill-rule="nonzero" fill="#FFFFFF">
            <g id="Page-1">
                <g id="Assets">
                    <g id="Trello-Logo">
                        <g id="Trello-Mark---White">
                            <g id="Logo">
                                <path d="M25.0013814,0 L174.998619,0 C188.800562,0 200,11.1934997 200,25.0013814 L200,174.998619 C200,188.800562 188.8065,200 174.998619,200 L25.0013814,200 C11.1994381,200 0,188.8065 0,174.998619 L0,25.0013814 C0,11.1994381 11.1934997,0 25.0013814,0 Z M37.997036,26 C31.371256,26 26,31.3690439 26,37.9916439 L26,151.508356 C26,158.131158 31.3732256,163.5 37.997036,163.5 L75.002964,163.5 C81.628744,163.5 87,158.130956 87,151.508356 L87,37.9916439 C87,31.3688418 81.6267744,26 75.002964,26 L37.997036,26 Z M124.997036,26 C118.371256,26 113,31.3745986 113,38.0059087 L113,101.494091 C113,108.124772 118.373226,113.5 124.997036,113.5 L162.002964,113.5 C168.628744,113.5 174,108.125401 174,101.494091 L174,38.0059087 C174,31.3752284 168.626774,26 162.002964,26 L124.997036,26 Z" id="Combined-Shape"></path>
                            </g>
                        </g>
                    </g>
                </g>
            </g>
        </g>
    </g>
</svg>